<svg width="29" height="46" viewBox="0 0 29 46" fill="none" xmlns="http://www.w3.org/2000/svg">
<path d="M12.4321 45.7309H16.5782L16.6134 41.6726C24.2205 41.0928 28.6301 37.0521 28.6477 30.9559C28.6301 24.9651 24.1151 21.7852 17.8607 20.3798L16.8242 20.1338L16.8945 11.3496C19.2311 11.8942 20.6541 13.3876 20.8649 15.6012H28.1558C28.0679 9.78605 23.7286 5.62235 16.9647 4.88448L16.9999 0.75592H12.8538L12.8186 4.84934C5.9494 5.51694 1.10053 9.66307 1.13567 15.6539C1.1181 20.9595 4.86016 23.9988 10.9388 25.457L12.6254 25.8786L12.5375 35.1723C9.67388 34.6277 7.74137 32.8708 7.54812 29.9369H0.186981C0.362665 37.0345 5.01827 41.005 12.4672 41.655L12.4321 45.7309ZM16.6837 35.1723L16.7539 26.9679C19.477 27.8287 20.9528 28.9355 20.9703 30.9383C20.9528 33.0641 19.3365 34.6452 16.6837 35.1723ZM12.6781 19.0621C10.482 18.3067 8.90088 17.1648 8.93601 15.1444C8.93601 13.2646 10.2712 11.8064 12.7483 11.2969L12.6781 19.0621Z" fill="#B2B09D"/>
</svg>
